<?xml version="1.0" encoding="UTF-8" standalone="no"?>
<!DOCTYPE svg PUBLIC "-//W3C//DTD SVG 1.1//EN"
 "http://www.w3.org/Graphics/SVG/1.1/DTD/svg11.dtd">
<!-- Generated by graphviz version 2.40.1 (20161225.0304)
 -->
<!-- Title: dependencies Pages: 1 -->
<svg width="532pt" height="211pt"
 viewBox="0.00 0.00 532.00 211.00" xmlns="http://www.w3.org/2000/svg" xmlns:xlink="http://www.w3.org/1999/xlink">
<g id="graph0" class="graph" transform="scale(1 1) rotate(0) translate(4 207)">
<title>dependencies</title>
<polygon fill="#ffffff" stroke="transparent" points="-4,4 -4,-207 528,-207 528,4 -4,4"/>
<text text-anchor="start" x="241.0091" y="-42.4" font-family="sans-serif" font-weight="bold" font-size="14.00" fill="#000000">Legend</text>
<polygon fill="#ffffb3" stroke="transparent" points="28,-10 28,-30 48,-30 48,-10 28,-10"/>
<text text-anchor="start" x="51.629" y="-15.4" font-family="sans-serif" font-size="14.00" fill="#000000"> &#160;Declarations</text>
<polygon fill="#8dd3c7" stroke="transparent" points="141,-10 141,-30 161,-30 161,-10 141,-10"/>
<text text-anchor="start" x="164.7251" y="-15.4" font-family="sans-serif" font-size="14.00" fill="#000000"> &#160;Module</text>
<polygon fill="#80b1d3" stroke="transparent" points="227,-10 227,-30 247,-30 247,-10 227,-10"/>
<text text-anchor="start" x="250.7812" y="-15.4" font-family="sans-serif" font-size="14.00" fill="#000000"> &#160;Bootstrap</text>
<polygon fill="#fdb462" stroke="transparent" points="324,-10 324,-30 344,-30 344,-10 324,-10"/>
<text text-anchor="start" x="347.6732" y="-15.4" font-family="sans-serif" font-size="14.00" fill="#000000"> &#160;Providers</text>
<polygon fill="#fb8072" stroke="transparent" points="420,-10 420,-30 440,-30 440,-10 420,-10"/>
<text text-anchor="start" x="443.7258" y="-15.4" font-family="sans-serif" font-size="14.00" fill="#000000"> &#160;Exports</text>
<g id="clust1" class="cluster">
<title>cluster_SegmentModule</title>
<polygon fill="none" stroke="#000000" stroke-dasharray="1,5" points="8,-70 8,-195 516,-195 516,-70 8,-70"/>
</g>
<g id="clust3" class="cluster">
<title>cluster_SegmentModule_imports</title>
<polygon fill="none" stroke="#000000" points="380,-78 380,-130 508,-130 508,-78 380,-78"/>
</g>
<g id="clust6" class="cluster">
<title>cluster_SegmentModule_providers</title>
<polygon fill="none" stroke="#000000" points="16,-78 16,-130 372,-130 372,-78 16,-78"/>
</g>
<!-- CommonModule -->
<g id="node1" class="node">
<title>CommonModule</title>
<polygon fill="#8dd3c7" stroke="#000000" points="499.6681,-122 496.6681,-126 475.6681,-126 472.6681,-122 388.3319,-122 388.3319,-86 499.6681,-86 499.6681,-122"/>
<text text-anchor="middle" x="444" y="-99.8" font-family="Times,serif" font-size="14.00" fill="#000000">CommonModule</text>
</g>
<!-- SegmentModule -->
<g id="node2" class="node">
<title>SegmentModule</title>
<polygon fill="#8dd3c7" stroke="#000000" points="373.0438,-187 370.0438,-191 349.0438,-191 346.0438,-187 264.9562,-187 264.9562,-151 373.0438,-151 373.0438,-187"/>
<text text-anchor="middle" x="319" y="-164.8" font-family="Times,serif" font-size="14.00" fill="#000000">SegmentModule</text>
</g>
<!-- CommonModule&#45;&gt;SegmentModule -->
<g id="edge1" class="edge">
<title>CommonModule&#45;&gt;SegmentModule</title>
<path fill="none" stroke="#000000" d="M388.0261,-104C376.9229,-104 368.6118,-104 368.6118,-104 368.6118,-104 368.6118,-140.8939 368.6118,-140.8939"/>
<polygon fill="#000000" stroke="#000000" points="365.1119,-140.8938 368.6118,-150.8939 372.1119,-140.8939 365.1119,-140.8938"/>
</g>
<!-- { provide: Window, useValue: window } -->
<g id="node3" class="node">
<title>{ provide: Window, useValue: window }</title>
<ellipse fill="#fdb462" stroke="#000000" cx="194" cy="-104" rx="169.9043" ry="18"/>
<text text-anchor="middle" x="194" y="-99.8" font-family="Times,serif" font-size="14.00" fill="#000000">{ provide: Window, useValue: window }</text>
</g>
<!-- { provide: Window, useValue: window }&#45;&gt;SegmentModule -->
<g id="edge2" class="edge">
<title>{ provide: Window, useValue: window }&#45;&gt;SegmentModule</title>
<path fill="none" stroke="#000000" d="M314.3404,-116.8419C314.3404,-116.8419 314.3404,-140.5231 314.3404,-140.5231"/>
<polygon fill="#000000" stroke="#000000" points="310.8405,-140.523 314.3404,-150.5231 317.8405,-140.5231 310.8405,-140.523"/>
</g>
</g>
</svg>
